<svg width="660" height="435" viewBox="0 0 660 435" fill="none" xmlns="http://www.w3.org/2000/svg">
<rect width="660" height="435" rx="20" fill="url(#paint0_linear_197_300)"/>
<path d="M255 134V136.083V223.583V225.667H257.083H314.635L307.669 246.5H290.417V250.667H369.583V246.5H352.331L345.365 225.667H402.917H405V223.583V150.667H400.833V200.667H259.167V138.167H405V134H257.083H255ZM259.167 204.833H400.833V221.5H259.167V204.833ZM330 209C327.699 209 325.833 210.865 325.833 213.167C325.833 215.468 327.699 217.333 330 217.333C332.301 217.333 334.167 215.468 334.167 213.167C334.167 210.865 332.301 209 330 209ZM318.997 225.667H341.003L347.969 246.5H312.031L318.997 225.667Z" fill="#FF8675"/>
<path d="M180 274.915C180 274.651 180.069 274.441 180.207 274.284C180.345 274.127 180.552 274.049 180.828 274.049H192.855C193.721 274.049 194.537 274.168 195.302 274.407C196.068 274.645 196.77 274.974 197.41 275.395C198.05 275.815 198.627 276.317 199.142 276.901C199.656 277.484 200.092 278.115 200.45 278.792C200.807 279.47 201.08 280.182 201.269 280.928C201.457 281.675 201.551 282.431 201.551 283.196C201.551 284.326 201.347 285.43 200.939 286.509C200.531 287.588 199.951 288.548 199.198 289.389C198.445 290.23 197.542 290.91 196.488 291.431C195.434 291.952 194.267 292.218 192.987 292.231H187.284V301.19C187.284 301.73 186.995 301.999 186.418 301.999H180.828C180.577 301.999 180.376 301.933 180.226 301.802C180.075 301.67 180 301.466 180 301.19V274.915V274.915ZM194.173 283.159C194.173 282.782 194.107 282.406 193.975 282.029C193.843 281.653 193.652 281.317 193.401 281.023C193.15 280.728 192.846 280.486 192.488 280.298C192.131 280.11 191.726 280.016 191.274 280.016H187.284V286.302H191.274C191.726 286.302 192.134 286.211 192.498 286.029C192.862 285.847 193.166 285.612 193.411 285.323C193.655 285.035 193.843 284.702 193.975 284.326C194.107 283.949 194.173 283.56 194.173 283.159V283.159ZM228.861 300.607C228.861 300.82 228.824 301.024 228.748 301.218C228.673 301.413 228.548 301.566 228.372 301.679C228.234 301.817 228.071 301.905 227.883 301.943C227.694 301.981 227.531 301.999 227.393 301.999H223.685C223.422 301.999 223.208 301.965 223.045 301.896C222.882 301.827 222.75 301.73 222.65 301.604C222.55 301.479 222.465 301.325 222.396 301.143C222.327 300.961 222.255 300.763 222.18 300.55L221.634 299.138C221.295 299.477 220.925 299.838 220.523 300.221C220.122 300.603 219.679 300.958 219.196 301.284C218.713 301.61 218.189 301.883 217.625 302.103C217.06 302.322 216.458 302.432 215.818 302.432C214.676 302.432 213.581 302.288 212.533 301.999C211.486 301.711 210.507 301.3 209.597 300.767C208.687 300.233 207.862 299.593 207.122 298.847C206.382 298.1 205.745 297.269 205.212 296.353C204.678 295.437 204.268 294.449 203.979 293.388C203.69 292.328 203.546 291.221 203.546 290.066C203.546 288.322 203.866 286.7 204.506 285.201C205.146 283.701 206.018 282.397 207.122 281.286C208.226 280.176 209.525 279.303 211.018 278.67C212.511 278.036 214.111 277.719 215.818 277.719C216.596 277.719 217.311 277.835 217.963 278.068C218.616 278.3 219.209 278.604 219.742 278.98C220.275 279.357 220.759 279.783 221.191 280.26C221.624 280.737 222.01 281.22 222.349 281.71L223.083 279.432C223.208 279.118 223.312 278.864 223.394 278.67C223.475 278.475 223.563 278.331 223.657 278.237C223.751 278.143 223.867 278.08 224.005 278.049C224.143 278.017 224.338 278.002 224.589 278.002H227.393C227.531 278.002 227.694 278.02 227.883 278.058C228.071 278.096 228.234 278.184 228.372 278.322C228.548 278.46 228.673 278.616 228.748 278.792C228.824 278.968 228.861 279.169 228.861 279.394V300.607V300.607ZM210.322 290.066C210.322 290.895 210.45 291.669 210.708 292.391C210.965 293.112 211.332 293.737 211.809 294.264C212.286 294.791 212.86 295.208 213.531 295.515C214.202 295.823 214.946 295.976 215.761 295.976C216.602 295.976 217.383 295.823 218.105 295.515C218.826 295.208 219.454 294.791 219.987 294.264C220.52 293.737 220.937 293.112 221.238 292.391C221.54 291.669 221.69 290.895 221.69 290.066C221.69 289.263 221.54 288.498 221.238 287.77C220.937 287.042 220.52 286.402 219.987 285.85C219.454 285.298 218.826 284.862 218.105 284.542C217.383 284.222 216.602 284.062 215.761 284.062C214.946 284.062 214.202 284.222 213.531 284.542C212.86 284.862 212.286 285.298 211.809 285.85C211.332 286.402 210.965 287.042 210.708 287.77C210.45 288.498 210.322 289.263 210.322 290.066V290.066ZM233.379 279.489C233.379 279.275 233.426 279.071 233.52 278.877C233.614 278.682 233.73 278.529 233.868 278.416C234.194 278.202 234.533 278.096 234.884 278.096H237.726C237.965 278.096 238.153 278.14 238.291 278.227C238.429 278.315 238.545 278.428 238.639 278.566C238.733 278.704 238.815 278.861 238.884 279.037C238.953 279.213 239.038 279.388 239.138 279.564C239.163 279.614 239.213 279.736 239.289 279.931C239.364 280.125 239.445 280.339 239.533 280.571C239.621 280.803 239.706 281.023 239.787 281.23C239.869 281.437 239.922 281.571 239.947 281.634C240.324 281.22 240.684 280.784 241.03 280.326C241.375 279.868 241.742 279.445 242.131 279.056C242.52 278.667 242.953 278.347 243.429 278.096C243.906 277.845 244.471 277.719 245.123 277.719C245.801 277.719 246.406 277.769 246.94 277.87C247.473 277.97 247.978 278.118 248.455 278.312C248.932 278.507 249.405 278.755 249.876 279.056C250.346 279.357 250.858 279.708 251.41 280.11C252.276 280.574 252.439 281.264 251.899 282.18L250.186 285.097C249.935 285.474 249.628 285.706 249.264 285.794C248.9 285.882 248.505 285.825 248.078 285.624C247.539 285.097 246.99 284.705 246.431 284.448C245.873 284.191 245.236 284.062 244.521 284.062C244.032 284.062 243.602 284.131 243.232 284.269C242.862 284.407 242.526 284.602 242.225 284.853C241.924 285.104 241.641 285.405 241.378 285.756C241.114 286.108 240.851 286.497 240.587 286.923V300.55C240.587 301.027 240.471 301.388 240.239 301.632C240.007 301.877 239.621 301.999 239.082 301.999H234.847C233.868 301.999 233.379 301.516 233.379 300.55V279.489V279.489ZM255.042 272.43C255.042 272.029 255.143 271.69 255.344 271.414C255.544 271.138 255.889 271 256.379 271H260.99C261.116 271 261.247 271.034 261.385 271.103C261.523 271.172 261.652 271.27 261.771 271.395C261.89 271.521 261.991 271.671 262.072 271.847C262.154 272.023 262.195 272.217 262.195 272.43V300.55C262.195 301.027 262.06 301.388 261.79 301.632C261.52 301.877 261.172 301.999 260.745 301.999H256.379C255.889 301.999 255.544 301.877 255.344 301.632C255.143 301.388 255.042 301.027 255.042 300.55V272.43V272.43ZM291.312 300.607C291.312 300.82 291.274 301.024 291.199 301.218C291.124 301.413 290.998 301.566 290.823 301.679C290.684 301.817 290.521 301.905 290.333 301.943C290.145 301.981 289.982 301.999 289.844 301.999H286.136C285.872 301.999 285.659 301.965 285.496 301.896C285.333 301.827 285.201 301.73 285.101 301.604C285 301.479 284.916 301.325 284.847 301.143C284.778 300.961 284.705 300.763 284.63 300.55L284.084 299.138C283.746 299.477 283.375 299.838 282.974 300.221C282.572 300.603 282.13 300.958 281.647 301.284C281.164 301.61 280.64 301.883 280.075 302.103C279.511 302.322 278.908 302.432 278.268 302.432C277.127 302.432 276.032 302.288 274.984 301.999C273.936 301.711 272.958 301.3 272.048 300.767C271.138 300.233 270.313 299.593 269.573 298.847C268.832 298.1 268.196 297.269 267.662 296.353C267.129 295.437 266.718 294.449 266.43 293.388C266.141 292.328 265.997 291.221 265.997 290.066C265.997 288.322 266.317 286.7 266.957 285.201C267.596 283.701 268.469 282.397 269.573 281.286C270.677 280.176 271.976 279.303 273.469 278.67C274.962 278.036 276.562 277.719 278.268 277.719C279.046 277.719 279.762 277.835 280.414 278.068C281.067 278.3 281.659 278.604 282.193 278.98C282.726 279.357 283.209 279.783 283.642 280.26C284.075 280.737 284.461 281.22 284.8 281.71L285.534 279.432C285.659 279.118 285.763 278.864 285.844 278.67C285.926 278.475 286.014 278.331 286.108 278.237C286.202 278.143 286.318 278.08 286.456 278.049C286.594 278.017 286.788 278.002 287.039 278.002H289.844C289.982 278.002 290.145 278.02 290.333 278.058C290.521 278.096 290.684 278.184 290.823 278.322C290.998 278.46 291.124 278.616 291.199 278.792C291.274 278.968 291.312 279.169 291.312 279.394V300.607V300.607ZM272.772 290.066C272.772 290.895 272.901 291.669 273.158 292.391C273.416 293.112 273.783 293.737 274.259 294.264C274.736 294.791 275.31 295.208 275.982 295.515C276.653 295.823 277.396 295.976 278.212 295.976C279.053 295.976 279.834 295.823 280.555 295.515C281.277 295.208 281.904 294.791 282.437 294.264C282.971 293.737 283.388 293.112 283.689 292.391C283.99 291.669 284.141 290.895 284.141 290.066C284.141 289.263 283.99 288.498 283.689 287.77C283.388 287.042 282.971 286.402 282.437 285.85C281.904 285.298 281.277 284.862 280.555 284.542C279.834 284.222 279.053 284.062 278.212 284.062C277.396 284.062 276.653 284.222 275.982 284.542C275.31 284.862 274.736 285.298 274.259 285.85C273.783 286.402 273.416 287.042 273.158 287.77C272.901 288.498 272.772 289.263 272.772 290.066V290.066ZM296.318 278.416C296.482 278.278 296.654 278.19 296.836 278.152C297.018 278.115 297.191 278.096 297.354 278.096H300.196C300.422 278.096 300.616 278.137 300.779 278.218C300.942 278.3 301.08 278.409 301.193 278.547C301.306 278.685 301.397 278.842 301.466 279.018C301.535 279.194 301.601 279.376 301.664 279.564L302.247 281.973C302.436 281.584 302.708 281.142 303.066 280.646C303.424 280.15 303.879 279.686 304.431 279.253C304.983 278.82 305.638 278.456 306.398 278.162C307.157 277.867 308.038 277.719 309.042 277.719C310.472 277.719 311.771 277.995 312.938 278.547C314.105 279.1 315.099 279.852 315.921 280.806C316.743 281.76 317.38 282.873 317.832 284.147C318.283 285.421 318.509 286.779 318.509 288.222V300.55C318.509 301.027 318.406 301.388 318.199 301.632C317.992 301.877 317.662 301.999 317.211 301.999H312.863C312.323 301.999 311.953 301.908 311.752 301.726C311.552 301.545 311.451 301.19 311.451 300.663V288.41C311.451 287.871 311.329 287.359 311.084 286.876C310.839 286.393 310.516 285.966 310.115 285.596C309.713 285.226 309.258 284.934 308.75 284.721C308.242 284.508 307.724 284.401 307.197 284.401C306.746 284.401 306.285 284.501 305.814 284.702C305.343 284.903 304.911 285.182 304.515 285.54C304.12 285.897 303.788 286.318 303.518 286.801C303.248 287.284 303.094 287.808 303.057 288.372V300.607C303.057 300.82 303.016 301.033 302.934 301.247C302.853 301.46 302.73 301.623 302.567 301.736C302.404 301.836 302.25 301.905 302.106 301.943C301.962 301.981 301.796 301.999 301.607 301.999H297.354C296.814 301.999 296.425 301.868 296.187 301.604C295.948 301.341 295.829 300.989 295.829 300.55V279.489C295.829 279.25 295.882 279.031 295.989 278.83C296.096 278.629 296.243 278.472 296.431 278.359L296.318 278.416ZM337.952 294.64C338.128 294.515 338.294 294.436 338.451 294.405C338.608 294.373 338.73 294.358 338.818 294.358C339.031 294.358 339.226 294.402 339.401 294.489C339.577 294.577 339.759 294.766 339.947 295.054L342.055 298.235C342.118 298.335 342.178 298.448 342.234 298.574C342.291 298.699 342.319 298.8 342.319 298.875C342.319 299.164 342.228 299.399 342.046 299.581C341.864 299.763 341.666 299.923 341.453 300.061C340.424 300.776 339.298 301.35 338.075 301.783C336.851 302.216 335.556 302.432 334.188 302.432C333.059 302.432 331.97 302.288 330.922 301.999C329.875 301.711 328.899 301.3 327.995 300.767C327.092 300.233 326.264 299.593 325.511 298.847C324.758 298.1 324.118 297.269 323.591 296.353C323.064 295.437 322.653 294.449 322.358 293.388C322.063 292.328 321.916 291.221 321.916 290.066C321.916 288.912 322.063 287.801 322.358 286.735C322.653 285.668 323.064 284.68 323.591 283.771C324.118 282.861 324.758 282.033 325.511 281.286C326.264 280.539 327.092 279.903 327.995 279.376C328.899 278.849 329.875 278.441 330.922 278.152C331.97 277.864 333.059 277.719 334.188 277.719C335.556 277.719 336.82 277.901 337.98 278.265C339.141 278.629 340.23 279.169 341.246 279.884L341.19 279.827C341.466 279.99 341.685 280.182 341.848 280.401C342.011 280.621 342.093 280.894 342.093 281.22C342.093 281.446 342.018 281.678 341.867 281.917L340.192 284.759C339.841 285.373 339.414 285.681 338.912 285.681C338.799 285.681 338.661 285.653 338.498 285.596C338.335 285.54 338.153 285.443 337.952 285.304C337.4 284.941 336.807 284.643 336.174 284.41C335.54 284.178 334.865 284.062 334.15 284.062C333.36 284.062 332.632 284.222 331.967 284.542C331.302 284.862 330.734 285.298 330.264 285.85C329.793 286.402 329.426 287.042 329.162 287.77C328.899 288.498 328.767 289.263 328.767 290.066C328.767 290.895 328.899 291.669 329.162 292.391C329.426 293.112 329.793 293.737 330.264 294.264C330.734 294.791 331.302 295.208 331.967 295.515C332.632 295.823 333.36 295.976 334.15 295.976C334.865 295.976 335.537 295.851 336.164 295.6C336.792 295.349 337.388 295.029 337.952 294.64V294.64ZM365.131 299.138C364.027 300.155 362.784 300.948 361.404 301.519C360.024 302.09 358.562 302.376 357.019 302.376C355.3 302.376 353.675 302.062 352.144 301.435C350.613 300.807 349.27 299.938 348.116 298.828C346.962 297.717 346.046 296.409 345.368 294.904C344.69 293.398 344.352 291.76 344.352 289.991C344.352 288.887 344.486 287.817 344.756 286.782C345.026 285.747 345.409 284.777 345.904 283.874C346.4 282.971 347.002 282.139 347.711 281.38C348.42 280.621 349.214 279.972 350.092 279.432C350.971 278.893 351.924 278.472 352.953 278.171C353.982 277.87 355.067 277.719 356.209 277.719C357.251 277.719 358.261 277.857 359.24 278.133C360.218 278.409 361.137 278.798 361.997 279.3C362.857 279.802 363.644 280.405 364.359 281.107C365.074 281.81 365.689 282.578 366.204 283.413C366.718 284.247 367.117 285.138 367.399 286.086C367.681 287.033 367.822 288.009 367.822 289.012C367.822 289.665 367.813 290.198 367.794 290.612C367.775 291.026 367.678 291.356 367.502 291.6C367.327 291.845 367.035 292.014 366.627 292.109C366.219 292.203 365.62 292.25 364.83 292.25H351.278C351.403 293.053 351.658 293.724 352.04 294.264C352.423 294.803 352.865 295.233 353.367 295.553C353.869 295.873 354.402 296.102 354.967 296.24C355.532 296.378 356.065 296.447 356.567 296.447C357.019 296.447 357.483 296.4 357.96 296.306C358.437 296.212 358.898 296.086 359.343 295.929C359.789 295.773 360.196 295.591 360.567 295.384C360.937 295.176 361.235 294.96 361.461 294.734C361.661 294.571 361.834 294.449 361.978 294.367C362.122 294.286 362.276 294.245 362.439 294.245C362.602 294.245 362.769 294.301 362.938 294.414C363.107 294.527 363.299 294.69 363.512 294.904L365.507 297.162C365.645 297.325 365.733 297.473 365.771 297.604C365.808 297.736 365.827 297.871 365.827 298.009C365.827 298.26 365.758 298.477 365.62 298.659C365.482 298.84 365.319 299 365.131 299.138V299.138ZM356.078 283.46C355.588 283.46 355.114 283.557 354.657 283.752C354.199 283.946 353.769 284.207 353.367 284.533C352.966 284.859 352.605 285.229 352.285 285.643C351.965 286.057 351.705 286.478 351.504 286.904H361.122C360.858 286.415 360.573 285.963 360.265 285.549C359.958 285.135 359.607 284.771 359.211 284.457C358.816 284.144 358.364 283.899 357.856 283.723C357.348 283.548 356.755 283.46 356.078 283.46V283.46ZM372.678 274.915C372.678 274.651 372.75 274.444 372.895 274.294C373.039 274.143 373.212 274.062 373.412 274.049H391.425C391.713 274.049 391.93 274.131 392.074 274.294C392.218 274.457 392.291 274.676 392.291 274.953V279.62C392.291 279.834 392.215 280.038 392.065 280.232C391.914 280.427 391.695 280.524 391.406 280.524H379.962V286.34H388.413C388.652 286.34 388.853 286.406 389.016 286.537C389.179 286.669 389.26 286.879 389.26 287.168V291.666C389.26 291.88 389.188 292.083 389.044 292.278C388.9 292.472 388.702 292.57 388.451 292.57H379.962V301.19C379.962 301.73 379.674 301.999 379.097 301.999H373.356C372.904 301.937 372.678 301.673 372.678 301.209V274.915V274.915ZM394.305 290.066C394.305 288.912 394.452 287.801 394.747 286.735C395.042 285.668 395.456 284.68 395.989 283.771C396.522 282.861 397.162 282.033 397.909 281.286C398.656 280.539 399.487 279.903 400.403 279.376C401.319 278.849 402.307 278.441 403.367 278.152C404.428 277.864 405.535 277.719 406.689 277.719C408.396 277.719 409.999 278.036 411.498 278.67C412.998 279.303 414.303 280.176 415.413 281.286C416.524 282.397 417.402 283.701 418.048 285.201C418.694 286.7 419.018 288.322 419.018 290.066C419.018 291.221 418.87 292.328 418.575 293.388C418.28 294.449 417.866 295.437 417.333 296.353C416.8 297.269 416.16 298.1 415.413 298.847C414.667 299.593 413.835 300.233 412.919 300.767C412.003 301.3 411.021 301.711 409.974 301.999C408.926 302.288 407.831 302.432 406.689 302.432C405.535 302.432 404.428 302.288 403.367 301.999C402.307 301.711 401.319 301.3 400.403 300.767C399.487 300.233 398.656 299.593 397.909 298.847C397.162 298.1 396.522 297.269 395.989 296.353C395.456 295.437 395.042 294.449 394.747 293.388C394.452 292.328 394.305 291.221 394.305 290.066ZM401.174 290.066C401.174 290.895 401.303 291.669 401.56 292.391C401.818 293.112 402.181 293.737 402.652 294.264C403.123 294.791 403.693 295.208 404.365 295.515C405.036 295.823 405.792 295.976 406.633 295.976C407.448 295.976 408.186 295.823 408.844 295.515C409.503 295.208 410.061 294.791 410.519 294.264C410.977 293.737 411.329 293.112 411.574 292.391C411.818 291.669 411.941 290.895 411.941 290.066C411.941 289.263 411.818 288.498 411.574 287.77C411.329 287.042 410.977 286.402 410.519 285.85C410.061 285.298 409.503 284.862 408.844 284.542C408.186 284.222 407.448 284.062 406.633 284.062C405.792 284.062 405.036 284.222 404.365 284.542C403.693 284.862 403.123 285.298 402.652 285.85C402.181 286.402 401.818 287.042 401.56 287.77C401.303 288.498 401.174 289.263 401.174 290.066V290.066ZM422.763 279.489C422.763 279.275 422.81 279.071 422.904 278.877C422.998 278.682 423.114 278.529 423.252 278.416C423.579 278.202 423.917 278.096 424.269 278.096H427.111C427.349 278.096 427.537 278.14 427.676 278.227C427.814 278.315 427.93 278.428 428.024 278.566C428.118 278.704 428.199 278.861 428.268 279.037C428.337 279.213 428.422 279.388 428.523 279.564C428.548 279.614 428.598 279.736 428.673 279.931C428.748 280.125 428.83 280.339 428.918 280.571C429.006 280.803 429.09 281.023 429.172 281.23C429.253 281.437 429.307 281.571 429.332 281.634C429.708 281.22 430.069 280.784 430.414 280.326C430.759 279.868 431.126 279.445 431.515 279.056C431.904 278.667 432.337 278.347 432.814 278.096C433.291 277.845 433.855 277.719 434.508 277.719C435.185 277.719 435.791 277.769 436.324 277.87C436.857 277.97 437.362 278.118 437.839 278.312C438.316 278.507 438.79 278.755 439.26 279.056C439.731 279.357 440.242 279.708 440.794 280.11C441.66 280.574 441.823 281.264 441.284 282.18L439.571 285.097C439.32 285.474 439.012 285.706 438.649 285.794C438.285 285.882 437.889 285.825 437.463 285.624C436.923 285.097 436.374 284.705 435.816 284.448C435.258 284.191 434.621 284.062 433.906 284.062C433.416 284.062 432.986 284.131 432.616 284.269C432.246 284.407 431.91 284.602 431.609 284.853C431.308 285.104 431.026 285.405 430.762 285.756C430.499 286.108 430.235 286.497 429.972 286.923V300.55C429.972 301.027 429.856 301.388 429.624 301.632C429.391 301.877 429.006 301.999 428.466 301.999H424.231C423.252 301.999 422.763 301.516 422.763 300.55V279.489V279.489ZM444.916 278.416C445.079 278.278 445.252 278.19 445.434 278.152C445.616 278.115 445.788 278.096 445.951 278.096H448.794C449.019 278.096 449.214 278.137 449.377 278.218C449.54 278.3 449.678 278.409 449.791 278.547C449.904 278.685 449.995 278.842 450.064 279.018C450.133 279.194 450.199 279.376 450.262 279.564L450.845 281.973C451.033 281.584 451.262 281.142 451.532 280.646C451.802 280.15 452.159 279.686 452.605 279.253C453.05 278.82 453.609 278.456 454.28 278.162C454.951 277.867 455.789 277.719 456.793 277.719C458.399 277.719 459.804 278.061 461.009 278.745C462.213 279.429 463.205 280.348 463.983 281.502C464.221 281.113 464.547 280.696 464.961 280.251C465.376 279.805 465.871 279.394 466.448 279.018C467.026 278.642 467.687 278.331 468.434 278.086C469.181 277.842 470.006 277.719 470.909 277.719C472.34 277.719 473.616 277.995 474.739 278.547C475.862 279.1 476.816 279.852 477.6 280.806C478.384 281.76 478.98 282.873 479.388 284.147C479.796 285.421 480 286.779 480 288.222V300.55C480 301.027 479.896 301.388 479.689 301.632C479.482 301.877 479.153 301.999 478.701 301.999H474.353C473.814 301.999 473.444 301.908 473.243 301.726C473.042 301.545 472.942 301.19 472.942 300.663V288.222C472.942 287.682 472.857 287.18 472.688 286.716C472.518 286.252 472.283 285.847 471.982 285.502C471.681 285.157 471.314 284.887 470.881 284.693C470.448 284.498 469.968 284.401 469.441 284.401C468.964 284.401 468.512 284.495 468.086 284.683C467.659 284.872 467.283 285.132 466.957 285.464C466.63 285.797 466.37 286.199 466.175 286.669C465.981 287.14 465.884 287.657 465.884 288.222V300.55C465.884 301.027 465.78 301.388 465.573 301.632C465.366 301.877 465.037 301.999 464.585 301.999H464.19H464.039H460.237C459.698 301.999 459.327 301.908 459.127 301.726C458.926 301.545 458.826 301.19 458.826 300.663V288.222C458.826 287.682 458.747 287.18 458.59 286.716C458.433 286.252 458.208 285.847 457.913 285.502C457.618 285.157 457.26 284.887 456.84 284.693C456.419 284.498 455.946 284.401 455.419 284.401C454.967 284.401 454.525 284.492 454.092 284.674C453.659 284.856 453.27 285.113 452.925 285.446C452.58 285.778 452.291 286.177 452.059 286.641C451.827 287.105 451.692 287.62 451.654 288.184V300.607C451.654 300.82 451.614 301.033 451.532 301.247C451.451 301.46 451.328 301.623 451.165 301.736C451.002 301.836 450.848 301.905 450.704 301.943C450.56 301.981 450.393 301.999 450.205 301.999H445.951C445.412 301.999 445.023 301.868 444.785 301.604C444.546 301.341 444.427 300.989 444.427 300.55V279.489C444.427 279.25 444.48 279.031 444.587 278.83C444.694 278.629 444.841 278.472 445.029 278.359L444.916 278.416Z" fill="white"/>
<defs>
<linearGradient id="paint0_linear_197_300" x1="2.71392e-06" y1="218" x2="660" y2="218" gradientUnits="userSpaceOnUse">
<stop stop-color="#5B52BC"/>
<stop offset="1" stop-color="#726CB9"/>
</linearGradient>
</defs>
</svg>
